# xmcd
#
# Track frame offsets: 
#        150
#        16051
#        28540
#        44553
#        59886
#        75583
#        91469
#        107259
#        121368
#        136004
#
# Disc length: 2037 seconds
#
# Revision: 6
# Processed by: cddbd v1.5.2PL0 Copyright (c) Steve Scherf et al.
# Submitted via: ExactAudioCopy v0.99pb4
#
DISCID=7807f30a
DTITLE=Las Ketchup - Las Hijas Del Tomate
DYEAR=2002
DGENRE=Pop
TTITLE0=Asereje
TTITLE1=Kusha las playas
TTITLE2=Un de vez en cuando
TTITLE3=Lanzame los Tastos baby
TTITLE4=Sevillanas pink
TTITLE5=Asereje (hippy)
TTITLE6=Krapuleo
TTITLE7=Me persigue un chulo
TTITLE8=Tengo un novio Tantriko
TTITLE9=Asereje (Karaoke)
EXTD=Aserejé, ja deje tejebe tude jebere sebiunouba majabi an de bugui
EXTD=an de buididipí.\nASEREJE JA DEJE TEJEBE TUBE JEDERE SEBIU NOUBA
EXTD=MAJABI ANDE BUGUI ANDE BUIDIDIPI\n
EXTT0=I said a hip hop the hippie the hippie/ to the hip hip hop, a yo
EXTT0=u don't stop/ the rock it to the bang bang boogie say up jumped 
EXTT0=the boogie/ to the rhythm of the boogie, the beat \n
EXTT1=
EXTT2=
EXTT3=
EXTT4=
EXTT5=
EXTT6=
EXTT7=
EXTT8=
EXTT9=
PLAYORDER=
